<svg width="20" height="18" viewBox="0 0 20 18" fill="none" xmlns="http://www.w3.org/2000/svg">
<path d="M19.0156 7.24264C18.4206 6.25064 17.4106 4.88262 15.9896 3.71462L18.3506 1.35363C18.5456 1.15863 18.5456 0.841628 18.3506 0.646628C18.1556 0.451628 17.8386 0.451628 17.6436 0.646628L12.1116 6.17864L12.1096 6.17962L12.1086 6.18062L1.64262 16.6466C1.44762 16.8416 1.44762 17.1586 1.64262 17.3536C1.74062 17.4516 1.86863 17.4996 1.99663 17.4996C2.12463 17.4996 2.25263 17.4506 2.35063 17.3536L4.80562 14.8986C6.39462 15.9566 8.13762 16.5006 9.99962 16.5006C14.8236 16.5006 17.7186 12.9036 19.0166 10.7576C19.6646 9.67362 19.6646 8.32664 19.0156 7.24264ZM12.9976 9.00063C12.9976 10.6546 11.6516 12.0006 9.9976 12.0006C9.3636 12.0006 8.76662 11.7996 8.26662 11.4386L12.4356 7.26964C12.7956 7.76964 12.9976 8.36663 12.9976 9.00063ZM18.1596 10.2416C16.9716 12.2056 14.3326 15.5006 9.99962 15.5006C8.40862 15.5006 6.91661 15.0346 5.54161 14.1636L7.55962 12.1456C8.25362 12.6906 9.0956 13.0006 9.9976 13.0006C12.2036 13.0006 13.9976 11.2066 13.9976 9.00063C13.9976 8.09863 13.6866 7.25664 13.1426 6.56264L15.2826 4.42263C16.6366 5.51363 17.5946 6.81664 18.1586 7.75664C18.6166 8.52364 18.6166 9.47663 18.1596 10.2416ZM2.31962 12.6226C1.82962 12.0426 1.38063 11.4146 0.983626 10.7586C0.335626 9.67363 0.335619 8.32764 0.982619 7.24364C2.28062 5.09764 5.17562 1.49962 9.99962 1.49962C10.9306 1.49962 11.8316 1.63464 12.7526 1.91064C13.0166 1.99064 13.1666 2.26862 13.0876 2.53362C13.0076 2.79762 12.7336 2.94764 12.4646 2.86864C11.6376 2.61964 10.8316 2.49962 9.99962 2.49962C5.66662 2.49962 3.02761 5.79463 1.83961 7.75863C1.38261 8.52363 1.38262 9.47664 1.84062 10.2436C2.20862 10.8536 2.62763 11.4376 3.08263 11.9766C3.26063 12.1876 3.2346 12.5036 3.0236 12.6816C2.9296 12.7616 2.81561 12.7996 2.70161 12.7996C2.55961 12.8006 2.41862 12.7406 2.31962 12.6226ZM9.37163 5.05562C9.64363 5.01362 9.8996 5.20162 9.9416 5.47362C9.9836 5.74662 9.7966 6.00163 9.5236 6.04363C8.2576 6.23863 7.23661 7.25963 7.04161 8.52563C7.00361 8.77262 6.79062 8.94964 6.54762 8.94964C6.52262 8.94964 6.49663 8.94762 6.47063 8.94362C6.19763 8.90162 6.01063 8.64662 6.05263 8.37362C6.31363 6.68162 7.67863 5.31762 9.37163 5.05562Z" fill="#16151C"/>
</svg>
