<svg width="20" height="16" viewBox="0 0 20 16" fill="none" xmlns="http://www.w3.org/2000/svg">
<path d="M19.0146 6.24449C17.7266 4.09849 14.8426 0.499496 9.99963 0.499496C5.15763 0.499496 2.27261 4.09849 0.984614 6.24449C0.335614 7.32749 0.335614 8.67251 0.984614 9.75551C2.27361 11.9015 5.15763 15.5005 9.99963 15.5005C14.8426 15.5005 17.7266 11.9015 19.0146 9.75551C19.6646 8.67251 19.6646 7.32749 19.0146 6.24449ZM18.1576 9.24049C16.9786 11.2045 14.3506 14.4995 9.99963 14.4995C5.64963 14.4995 3.02164 11.2045 1.84164 9.24049C1.38264 8.47549 1.38264 7.52451 1.84164 6.75951C3.02164 4.79551 5.64963 1.5005 9.99963 1.5005C14.3506 1.5005 16.9786 4.79551 18.1576 6.75951C18.6166 7.52451 18.6166 8.47549 18.1576 9.24049ZM9.99963 4.0005C7.79363 4.0005 5.99963 5.7945 5.99963 8.0005C5.99963 10.2065 7.79363 12.0005 9.99963 12.0005C12.2056 12.0005 13.9996 10.2065 13.9996 8.0005C13.9996 5.7945 12.2056 4.0005 9.99963 4.0005ZM9.99963 11.0005C8.34563 11.0005 6.99963 9.6545 6.99963 8.0005C6.99963 6.3465 8.34563 5.0005 9.99963 5.0005C11.6536 5.0005 12.9996 6.3465 12.9996 8.0005C12.9996 9.6545 11.6536 11.0005 9.99963 11.0005Z" fill="#16151C"/>
</svg>
